<?xml version="1.0"?>
    <svg xmlns="http://www.w3.org/2000/svg" viewBox="0 0 24 24" enable-background="new 0 0 24 24">
        <path fill="white" d="M 3.4375 2.03125 L 2.03125 3.4375 L 6.8125 8.1875 L 6 9 L 2 9 L 2 15 L 6 15 L 12 21 L 12 13.40625 L 16.5625 17.96875 C 15.785822 18.43333 14.932256 18.789718 14 18.90625 L 14 20.90625 C 15.448077 20.768338 16.842213 20.237837 18.03125 19.4375 L 20.5625 21.96875 L 21.96875 20.5625 L 3.4375 2.03125 z M 12 3 L 9.5 5.5 L 12 7.90625 L 12 3 z M 14 3.1875 L 14 5.1875 C 17.4 5.5875 20 8.5 20 12 C 20 13.1 19.6875 14.1875 19.1875 15.1875 L 20.6875 16.6875 C 21.4875 15.2875 22 13.79375 22 12.09375 C 22 7.49375 18.5 3.6875 14 3.1875 z M 14 8.09375 L 14 9.90625 L 16.90625 12.8125 C 17.00625 12.6125 17 12.3 17 12 C 17 10.1 15.7 8.59375 14 8.09375 z"/>
    </svg>
    
