<svg xmlns="http://www.w3.org/2000/svg" viewBox="0 0 400 412.632">
    <defs/>
    <path fill-rule="evenodd" d="M97.684.401c-15.464.735-33.885 6.958-48 16.215C25.307 32.602 10.01 54.8 2.376 85.263L.898 91.158.596 251.895.293 412.632h399.408l-.312-88.873-.312-88.873-1.791-4.917c-8.744-23.994-22.334-34.346-51.812-39.467-34.765-6.04-54.341-19.723-63.989-44.726-3.207-8.312-4.448-15.916-5.477-33.565-1.287-22.072-2.233-28.346-5.936-39.369C257.355 34.982 220.784 4.481 183.719.82c-5.413-.535-76.337-.88-86.035-.419m-56 326.967v44.843h13.474v27.368H13.895V282.526h27.789v44.842m54.737 0v44.843h13.895v27.368H69.053v-27.368h13.894v-89.685h13.474v44.842m55.232-.432c.101 24.425.277 44.503.392 44.618.115.115 3.088.338 6.608.497l6.4.289V399.579h-40.842v-27.368H137.684v-89.685h13.786l.183 44.41m55.505.432v44.843h13.895v27.368h-42.106v-27.368h13.895v-89.685h14.316v44.842m55.158 0v44.843H275.789v27.368h-41.274l.111-13.579.111-13.579 6.499-.324c3.575-.178 6.557-.381 6.627-.451.07-.07.255-20.15.412-44.623l.285-44.497h13.756v44.842m54.737 0v44.843h13.894v27.368H289.684v-27.368h13.895v-89.685h13.474v44.842m68.631 13.685v58.526H344.421v-27.368h13.895v-89.685h27.368v58.527"/>
  </svg>
