<svg id="svg" xmlns="http://www.w3.org/2000/svg" xmlns:xlink="http://www.w3.org/1999/xlink" width="400" height="481.5724815724816" viewBox="0, 0, 400,481.5724815724816"><g id="svgg"><path id="path0" d="M280.344 0.301 C 221.599 6.434,180.847 53.111,182.455 112.423 C 182.944 130.464,183.390 131.356,200.462 148.437 C 234.489 182.482,273.991 209.974,299.688 217.495 C 307.006 219.637,312.362 219.060,325.379 214.727 C 362.251 202.451,387.436 175.695,397.401 138.210 L 399.199 131.450 399.396 114.221 C 399.642 92.694,398.838 87.422,393.001 72.296 C 375.293 26.405,326.849 -4.553,280.344 0.301 M176.047 149.242 C 171.102 155.965,11.928 405.062,3.954 418.558 C -1.391 427.604,-1.081 439.205,4.756 448.570 C 19.145 471.655,43.947 485.431,61.179 479.910 L 65.602 478.493 75.936 468.116 C 95.509 448.463,258.989 272.591,290.835 236.927 C 295.603 231.588,295.726 231.948,288.452 229.974 C 254.524 220.768,218.578 194.147,185.272 153.563 C 178.020 144.726,179.023 145.196,176.047 149.242 " stroke="none" fill="#000000" fill-rule="evenodd"></path></g></svg>