<svg xmlns="http://www.w3.org/2000/svg" viewBox="0 0 30.392 30.392">
    <defs/>
    <path fill="#010002" d="M11.206 17.951c.02.235.109.464.263.665l-6.64 6.642-.466-.466 6.843-6.841zM29.732 3.433l-2.131 2.134a2.01 2.01 0 01-1.872.533l-9.479 9.479a4.435 4.435 0 01-.606 5.508c-1.053.727-2.882.727-3.425 1.54-1.304 1.604-.176 4.209-1.872 5.908-2.415 2.414-6.254 2.482-8.579.159s-2.254-6.166.16-8.576c1.698-1.702 4.064-1.212 5.652-2.126 1.588-.92.781-2.162 1.793-3.176a4.437 4.437 0 015.335-.71l9.515-9.517a2.01 2.01 0 01.533-1.871l2.131-2.13a2.012 2.012 0 112.845 2.845zm-2.255.881a.321.321 0 00-.455 0 .316.316 0 00-.075.128L13.663 17.728a1.29 1.29 0 00-.362-.711c-.005-.003-.01-.008-.016-.014L26.412 3.88c.014.035.037.07.065.102a.313.313 0 00.438 0 .31.31 0 00-.438-.439.319.319 0 00-.073.141l-13.23 13.23c-.2-.155-.43-.244-.666-.266L25.977 3.181a.421.421 0 00.521-.058.427.427 0 10-.604-.604.422.422 0 00-.026.565L12.305 16.647a1.162 1.162 0 00-1.102 1.102L4.26 24.693l-.778-.778-.879.879 2.708 2.709.88-.88-.608-.61-.096.097-.103-.1.096-.098.103.101 6.886-6.889c.317.005.628-.109.865-.347.238-.235.355-.549.347-.865L26.947 4.647c.018.045.04.089.075.124a.323.323 0 10.455-.457zM5.482 25.91l6.802-6.806a1.268 1.268 0 01-.708-.359c-.005-.004-.008-.012-.014-.017L4.928 25.36l.554.55zm7.026-9.263a1.375 1.375 0 00-.203 0l-1.102 1.102c-.004.066-.004.135.001.202l1.304-1.304zm-1.039 1.969c.031.036.058.078.093.112l1.723-1.725a1.207 1.207 0 00-.11-.091l-1.706 1.704zm.815.488c.062.01.123.02.185.02l1.212-1.212c0-.062-.008-.124-.019-.185l-1.378 1.377zm-7.555 6.252l.102.102.097-.098-.102-.102-.097.098zm-.565-.568l.101.105.098-.102-.102-.099-.097.096z"/>
  </svg>
