<svg xmlns="http://www.w3.org/2000/svg" viewBox="0 0 400 326.316">
    <defs/>
    <path fill-rule="evenodd" d="M195.215 43.42c-21.943 6.041-32.898 29.251-23.318 49.403 11.98 25.199 46.191 27.939 61.644 4.937 18.158-27.029-7.156-62.921-38.326-54.34m-59.33 8.664c-15.07 4.182-28.351 20.723-20.677 25.751 6.293 4.123 14.936 16.931 14.936 22.135 0 4.448 1.831 5.343 7.655 3.74 6.174-1.7 17.241-1.18 22.607 1.063 7.969 3.329 10.451.415 6.271-7.362-5.032-9.363-6.413-21.487-3.529-30.991 2.1-6.925 1.888-7.707-2.848-10.482-8.165-4.785-16.385-6.083-24.415-3.854m120.459.843c-9.311 3.174-13.653 6.757-12.833 10.592 2.91 13.599 2.303 22.889-2.08 31.84-4.542 9.275-2.035 11.229 10.244 7.987 2.689-.71 7-.906 11.483-.523 3.947.338 8.187.703 9.422.81 1.934.168 2.474-.533 3.906-5.068 3.091-9.792 7.677-16.243 17.145-24.115l3.107-2.584-1.873-3.636c-7.089-13.762-23.692-20.358-38.521-15.303m52.18 23.657c-12.898 2.558-24.525 14.505-25.877 26.591-.498 4.445-.454 4.53 5.628 10.736 6.284 6.413 10.469 13.726 11.662 20.379 2.034 11.343 28.604 9.044 39.253-3.397 20.631-24.103.128-60.414-30.666-54.309m-222.213.992c-38.188 7.519-32.862 64.44 6.033 64.48 11.178.011 13.965-1.279 15.425-7.138 1.922-7.713 5.428-13.759 11.562-19.935 8.273-8.33 7.541-16.162-2.544-27.196-8.15-8.917-18.846-12.501-30.476-10.211m52.398 32.757c-23.187 6.581-31.543 36.794-14.958 54.084 8.797 9.172 22.971 13.02 33.187 9.011 7.275-2.855 8.14-3.66 9.885-9.197 1.856-5.888 6.963-14.054 11.281-18.037 2.652-2.448 2.79-2.925 2.206-7.656-2.494-20.203-22.355-33.668-41.601-28.205m113.668-.257c-18.775 4.718-30.36 25.737-19.762 35.857 6.499 6.206 10.054 11.87 12.405 19.765 3.834 12.875 25.2 12.795 38.137-.142 23.482-23.482 1.263-63.532-30.78-55.48m-66.981 6.582c-4.999 1.038-5.144 1.401-2.671 6.681 1.204 2.57 2.715 6.982 3.358 9.805 1.346 5.91 1.187 5.871 12.698 3.121 6.082-1.454 7.713-1.502 13.547-.401 8.231 1.553 9.253 1.17 10.043-3.767.347-2.173 1.654-6.071 2.904-8.662 3.358-6.96 2.929-7.131-18.484-7.346-9.788-.099-19.415.157-21.395.569m-100.707 28.09c-25.966 2.474-36.236 8.341-44.302 25.307l-3.545 7.457-.309 20.471c-.169 11.259-.073 21.408.214 22.553.984 3.921 22.908 9.897 37.894 10.33l8.134.234.717-10.037c1.139-15.944 4.992-25.045 14.724-34.778 5.159-5.158 14.463-11.165 17.295-11.165 2.548 0 2.282-2.765-.658-6.822-3.874-5.348-6.436-11.215-7.24-16.576-.99-6.597-7.163-8.475-22.924-6.974m110.414.114c-34.488 12.324-25.982 63.792 10.569 63.951 30.041.132 44.312-36.967 21.953-57.07-8.209-7.38-22.603-10.426-32.522-6.881m109.685-.679c-3.467.589-3.956 1.296-4.786 6.932-.711 4.819-4.085 12.207-7.814 17.11-2.624 3.449-2.086 5.271 1.918 6.496 16.006 4.896 28.696 24.098 30.121 45.577l.653 9.846 8.134-.238c9.296-.271 27.126-4.119 33.493-7.229l4.306-2.103-.007-22.009-.007-22.01-3.111-6.61c-5.623-11.946-15.266-20.704-26.313-23.897-5.104-1.474-31.085-2.799-36.587-1.865m-176.08 33.538c-12.475 1.741-24.013 9.062-30.587 19.408-8.103 12.754-10.745 55.464-3.6 58.204 9.865 3.783 42.1 9.541 45.694 8.162 1.082-.415 1.412-2.333 1.412-8.196 0-19.869 11.06-38.195 28.039-46.457 7.222-3.515 7.346-3.756 3.987-7.747-3.277-3.896-8.103-14.752-8.103-18.231 0-5.425-1.368-5.846-18.489-5.687-8.515.079-16.774.324-18.353.544m118.691.219c-.392.635-1.311 3.719-2.042 6.853-1.444 6.188-4.153 12.079-7.696 16.733-3.004 3.945-3.204 3.613 4.683 7.748 17.382 9.112 27.512 26.332 27.512 46.765 0 7.546.954 8.42 8.323 7.633 14.424-1.541 24.951-3.984 33.635-7.807l5.115-2.252-.439-21.782c-.318-15.83-.812-22.699-1.806-25.132-5.886-14.412-13.738-22.142-27.753-27.322-5.47-2.022-38.43-3.22-39.532-1.437m-54.098 33.609c-23.871 1.645-39.143 14.012-42.973 34.799-1.407 7.639-1.399 41.359.01 42.23 9.622 5.947 53.862 11.407 74.254 9.165 15.248-1.677 33.337-6.57 36.27-9.811 2.361-2.609 1.439-41.309-1.138-47.741-9.458-23.605-27.38-31.334-66.423-28.642"/>
  </svg>
