<svg xmlns="http://www.w3.org/2000/svg" viewBox="0 0 400 433.333">
    <defs/>
    <path fill-rule="evenodd" d="M214.286 68.834c-38.505 13.176-44.948 61.686-11.112 83.66 27.371 17.775 64.967.619 70.163-32.018 5.33-33.478-27.705-62.368-59.051-51.642m-66.385 85.547c-33.591 4.16-47.886 45.981-24.392 71.358 15.784 17.048 50.483 18.267 55.102 1.935.823-2.911 1.702-6 1.953-6.865.843-2.902 8.003-13.267 12.448-18.019l4.405-4.709-.597-5.945c-2.445-24.345-23.844-40.86-48.919-37.755m146.222-.02c-18.083 2.644-33.044 17.883-35.567 36.228-.622 4.524-.539 4.739 2.993 7.746 11.674 9.942 17.889 20.183 20.802 34.278 1.464 7.087 24.157 8.566 36.81 2.4 36.455-17.766 29.43-75.064-9.843-80.284-8.287-1.102-9.908-1.141-15.195-.368m-91.742 9.146c-5.546.626-5.747 1.345-2.362 8.438 1.686 3.533 3.574 9.441 4.196 13.13 1.327 7.879 1.679 8.093 8.865 5.383 6.92-2.609 18.005-3.42 25.491-1.864 10.912 2.268 11.275 2.157 12.506-3.832 1.236-6.013 2.419-9.311 5.367-14.97 3.35-6.431 3.317-6.44-25.301-6.586-13.724-.071-26.667.065-28.762.301m16.667 35.953c-35.316 9.842-43.499 56.436-13.437 76.51 32.891 21.964 75.562-8.103 65.441-46.113-5.954-22.362-30.13-36.493-52.004-30.397M120 245.103c-29.267 9.979-38.453 26.815-38.527 70.611l-.044 26.667 5.238 1.748c12.986 4.333 34.561 8.676 52.328 10.535 7.238.757 7.669.107 7.688-11.602.031-19.663 6.922-36.057 20.468-48.699 5.209-4.861 18.98-13.411 21.602-13.411 3.045 0 3.089-2.737.104-6.477-6.46-8.09-9.203-14.244-11.123-24.951l-1.11-6.191-25.217-.17c-23.785-.161-25.568-.051-31.407 1.94m162.363 2.278c-1.277 9.46-5.87 20.146-11.571 26.922-3.108 3.693-2.578 5.593 2.085 7.48 24.579 9.949 38.734 31.555 40.326 61.55l.607 11.429 7.589-.187c16.596-.409 45.324-7.475 50.719-12.475l2.4-2.225-.479-25.89c-.619-33.493-3.122-41.869-16.512-55.259-13.147-13.147-21.978-15.84-51.992-15.857l-22.561-.012-.611 4.524m-79.123 40.181c-21.559 3.401-38.912 19.277-44.855 41.04-1.617 5.919-2.7 56.913-1.241 58.381.668.671 26.107 7.312 31.898 8.326 44.263 7.755 85.591 5.036 109.529-7.205l3.81-1.948-.006-27.602c-.005-26.424-.099-27.866-2.209-33.792-6.217-17.463-18.606-29.492-36.833-35.76-5.333-1.835-50.699-2.921-60.093-1.44"/>
  </svg>
