<svg xmlns="http://www.w3.org/2000/svg" xmlns:xlink="http://www.w3.org/1999/xlink" viewBox="0 0 1024 1024">
    <defs>
      <linearGradient xlink:href="#a" id="b" x1="-15.757" x2="-31.981" y1="50.285" y2="11.045" gradientUnits="userSpaceOnUse"/>
      <linearGradient id="a">
        <stop offset="0"/>
        <stop offset="1" stop-opacity="0"/>
      </linearGradient>
      <clipPath id="c" clipPathUnits="userSpaceOnUse">
        <path fill="#ffc938" d="M23.705 29.953C37.37 36.81 24.849 52.391 5.87 47.116c-10.137-2.817-.983 1.734-.983 1.734s4.735 4.253 13.356 4.173c8.622-.08 19.263-4.173 19.263-4.173L32.3 29.937Z"/>
      </clipPath>
    </defs>
    <g fill="url(#b)" transform="rotate(30 400.673 853.657) scale(15.77745)">
      <rect width="6.056" height="15.194" x="18.169" y="5.106" fill="#000" fill-rule="evenodd" rx="1.966" ry="1.966"/>
      <rect width="22.206" height="6.587" x="10.094" y="21.938" fill="#000" fill-rule="evenodd" rx="1.966" ry="1.966"/>
      <path fill="#000" fill-rule="evenodd" d="M10.094 29.938c-.162 8.271-2.878 13.35-5.207 18.912a43.624 43.624 0 0 0 8.658 2.18l2.818-9.968.201 10.3c7.092.544 14.048-.587 20.942-2.512-3.914-5.634-4.946-12.154-5.205-18.913Z"/>
      <path fill="#978808" fill-opacity=".117" fill-rule="evenodd" d="M10.094 29.938c-.162 8.271-2.878 13.35-5.207 18.912a43.624 43.624 0 0 0 8.658 2.18l2.818-9.968.201 10.3c7.092.544 14.048-.587 20.942-2.512-3.914-5.634-4.946-12.154-5.205-18.913Z" clip-path="url(#c)"/>
      <path fill="#fff" d="M21.387 6.055s-1.631-.529-2.228.05c-.541.523-.025 4.087-.025 4.087.531-1.585-.565-4.11 2.253-4.137z"/>
      <path fill="#000" fill-rule="evenodd" d="M18.169 15.404h6.056V20.3h-6.056z"/>
    </g>
    <circle cx="512" cy="512" r="486.4" fill="none" stroke="#000" stroke-width="51.2" paint-order="fill markers stroke" style="marker:none"/>
  </svg>
