<svg xmlns="http://www.w3.org/2000/svg" fill="currentColor" class="svg-icon" viewBox="0 0 1024 1024">
    <path d="M886.4 422.629 782.857 98.857a10.56 10.56 0 0 0-10.171-7.428h-88.457c-4.686 0-8.686 2.971-10.172 7.428L569.714 422.63c-.343 1.028-.571 2.171-.571 3.314 0 5.828 4.8 10.628 10.628 10.628h64.458c4.8 0 8.914-3.2 10.285-7.771l20-70.4H776.23L796 428.686c1.257 4.571 5.486 7.771 10.286 7.771h69.943c1.142 0 2.171-.114 3.2-.457a11.017 11.017 0 0 0 6.285-5.257c1.257-2.514 1.486-5.372.686-8.114zM684.914 298.857l37.486-133.6h7.2l36.686 133.6h-81.372zm164 563.314H700.8v-.457L852.343 645.83c1.257-1.829 1.943-3.886 1.943-6.172v-41.6c0-5.828-4.8-10.628-10.629-10.628H610.514c-5.828 0-10.628 4.8-10.628 10.628V647.2c0 5.829 4.8 10.629 10.628 10.629H750.63v.457L598.514 874.17a10.686 10.686 0 0 0-1.943 6.172v41.6c0 5.828 4.8 10.628 10.629 10.628h241.6c5.829 0 10.629-4.8 10.629-10.628V872.8a10.514 10.514 0 0 0-10.515-10.629zM146.236 294.821h86.857v605.714c0 5.029 4.115 9.143 9.143 9.143h64c5.029 0 9.143-4.114 9.143-9.143V294.821h86.857c7.657 0 12-8.914 7.2-14.857l-128-162.171a9.143 9.143 0 0 0-14.4 0l-128 162.171c-4.685 5.943-.457 14.857 7.2 14.857z"/>
  </svg>
