<svg xmlns="http://www.w3.org/2000/svg" viewBox="0 0 1000 1000">
    <defs/>
    <path d="M185 360c8.3 0 16.7-3 23.4-9L465 123.6V745c0 19.3 15.7 35 35 35s35-15.7 35-35V123.6L791.6 351c6.7 6 15.1 9 23.4 9 9.6 0 19.1-3.9 26-11.6 12.9-14.4 11.8-36.5-2.6-49.4L523.6 19.1c-.8-.8-1.7-1.5-2.6-2.1-.4-.3-.8-.6-1.3-.9l-.1-.1c-.1-.1-.2-.2-.4-.2-.3-.2-.5-.3-.8-.5-.1-.1-.2-.1-.3-.2-.1-.1-.2-.2-.4-.2-.1-.1-.2-.1-.3-.2-.1-.1-.3-.2-.4-.2-.1-.1-.3-.2-.4-.2-.1-.1-.2-.1-.3-.2-.2-.1-.4-.2-.5-.3l-.6-.3c-.1 0-.2-.1-.3-.1l-.6-.3c-.2-.1-.5-.2-.7-.3-.1 0-.2-.1-.2-.1-.2-.1-.4-.2-.6-.2-.3-.1-.5-.2-.8-.3-.1 0-.1 0-.2-.1-.2-.1-.4-.1-.6-.2l-.9-.3h-.1c-.2-.1-.4-.1-.6-.2-.3-.1-.6-.2-.9-.2h-.1c-.2-.1-.4-.1-.7-.2-.3-.1-.7-.2-1-.2-.2 0-.5-.1-.7-.1-.3-.1-.7-.1-1-.2-.3 0-.5-.1-.8-.1-.3 0-.6-.1-.9-.1-.3 0-.6 0-.8-.1-.3 0-.6 0-.9-.1h-1.5-.1-1.6c-.3 0-.5 0-.8.1-.3 0-.6 0-.9.1-.3 0-.6.1-.9.1-.3 0-.5.1-.8.1-.3 0-.6.1-1 .2-.2 0-.5.1-.7.1-.3.1-.7.1-1 .2-.2.1-.4.1-.7.2h-.1c-.3.1-.6.2-.9.2-.2.1-.4.1-.7.2h-.1l-.9.3c-.2.1-.4.1-.6.2 0 0-.1 0-.1.1-.3.1-.5.2-.8.3-.2.1-.4.2-.6.2-.1 0-.1.1-.2.1-.2.1-.5.2-.7.3l-.6.3c-.1 0-.2.1-.3.1l-.6.3-.6.3c-.1.1-.2.1-.3.2-.2.1-.3.2-.5.3-.1.1-.2.1-.3.2-.1.1-.3.1-.4.2-.1.1-.2.1-.3.2-.1.1-.2.1-.3.2-.2.1-.4.3-.7.4 0 0-.1 0-.1.1-.1.1-.2.2-.3.2-.1 0-.1.1-.2.1-.4.3-.8.6-1.2.8l-.1.1c-.4.3-.8.6-1.2 1-.4.4-.8.7-1.3 1.1L161.6 299c-14.4 12.9-15.5 35.1-2.6 49.4 6.9 7.7 16.4 11.6 26 11.6z"/>
    <path d="M885 640c-19.3 0-35 15.7-35 35v245H150V675c0-19.3-15.7-35-35-35s-35 15.7-35 35v280c0 19.3 15.7 35 35 35h770c19.3 0 35-15.7 35-35V675c0-19.3-15.7-35-35-35z"/>
  </svg>
