<svg xmlns="http://www.w3.org/2000/svg" viewBox="0 0 305.499 305.498">
    <defs/>
    <path d="M57.171 212.603c-34.905 13.926-55.519 44.482-46.035 68.246 9.49 23.752 45.468 31.727 80.381 17.789 24.157-9.646 41.449-27.246 46.677-45.048a14.753 14.753 0 001.737-6.957V113.134l127.056-23.538v112.767c-15.128-4.248-34.256-3.113-53.066 4.4-34.912 13.922-55.517 44.479-46.045 68.23 9.481 23.764 45.468 31.723 80.381 17.793 24.164-9.654 41.469-27.255 46.69-45.056a14.864 14.864 0 001.724-6.945V60.855c0-.938-.093-1.851-.261-2.747V9.312c0-5.142-4.172-9.312-9.306-9.312L119.489 31.042c-5.16 0-9.328 4.166-9.328 9.309v67.247c0 .261.054.495.076.755v99.849c-15.11-4.244-34.241-3.109-53.066 4.401z"/>
  </svg>
