<svg xmlns="http://www.w3.org/2000/svg" viewBox="0 0 400 340.302">
    <path fill-rule="evenodd" d="M253.25 15.321c-19.297 1.66-34.128 15.882-36.301 34.809-.399 3.477-.158 86.809.257 88.947 3.621 18.639 17.471 31.218 36.044 32.736 5.212.426 83.866.184 86.617-.267 17.698-2.898 30.929-16.354 33.193-33.757.515-3.957.357-87.127-.17-89.739-3.517-17.425-15.647-29.468-32.611-32.378-1.981-.339-83.347-.668-87.029-.351M96.662 54.512c-17.945 1.078-32.1 13.8-36.087 32.435-.423 1.979-.664 203.116-.247 206.865 2.056 18.505 16.803 32.907 35.46 34.63 3.247.299 200.524.292 203.284-.008 17.54-1.907 31.174-14.639 34.625-32.334.525-2.692.858-83.647.36-87.468-2.718-20.843-31.421-23.188-38.193-3.12l-.596 1.768-.109 32.658-.108 32.657-.543 1.978c-2.191 7.981-8.243 13.476-16.156 14.669-2.202.332-151.259.479-151.259.149 0-.086 11.42-11.575 25.377-25.532l25.377-25.377v6.473c0 8.347.402 10.748 2.415 14.411 7.579 13.797 27.747 13.385 34.709-.708 2.266-4.588 2.225-3.82 2.144-39.937l-.067-30.161-.543-1.979c-1.898-6.914-6.433-11.78-13.09-14.044-2.764-.94-3.196-.951-36.384-.886l-31.514.061-1.608.458c-15.1 4.298-19.863 22.675-8.622 33.263 4.672 4.4 7.625 5.279 17.727 5.279 3.828 0 6.96.071 6.96.157 0 .086-11.42 11.576-25.378 25.533l-25.379 25.376.054-75.819.053-75.819.493-1.768c2.185-7.838 8.565-13.528 16.319-14.553 1.057-.14 12.349-.215 32.266-.215 36.115 0 34.433.125 39.413-2.94 16.159-9.944 10.174-34.474-8.824-36.166-2.712-.242-78.29-.229-82.329.014m221.293.205c7.536 1.335 13.761 7.088 15.741 14.55l.469 1.768v44.93l-.473 1.872c-1.562 6.172-6.133 11.369-12.003 13.649-3.295 1.279-2.425 1.242-27.158 1.173l-22.56-.063-1.869-.561c-7.736-2.323-13.13-8.747-14.041-16.72-.409-3.582-.173-43.69.267-45.473 1.955-7.909 8.175-13.832 15.884-15.126 1.558-.261 44.266-.261 45.743.001"/>
  </svg>
  
