<svg width="400" height="400" xmlns="http://www.w3.org/2000/svg">
    <g>
     <title>Layer 1</title>
     <path id="svg_1" d="m4.00099,44.1346l258.15773,0l0,-42.13452l-258.15773,0l0,16.06726m202.16482,49.31207c-57.20913,8.2312 -98.3771,64.39148 -94.91315,129.47723c5.04599,94.83968 93.92962,148.18944 162.99629,97.83525c3.9929,-2.9107 5.92877,-3.98203 6.0847,-3.36427c0.44259,1.75449 88.20355,103.25593 90.10824,104.21596c4.86368,2.45294 6.68681,1.37187 15.90322,-9.42219c8.57351,-10.04412 9.87969,-13.17604 7.58518,-18.20019c-0.46418,-1.01568 -20.95281,-25.13605 -45.53149,-53.60159l-44.6883,-51.75528l2.5212,-4.309c38.22338,-65.33481 11.00955,-158.51462 -53.87472,-184.46739c-13.44679,-5.37755 -33.7639,-8.19781 -46.19118,-6.40854m-202.16482,33.41734l0.6536,24.56408l96.04541,0l0.99672,-1.8811c4.36592,-8.23816 9.52595,-26.30048 12.90354,-30.80009c2.22134,-2.96078 4.4031,-5.96052 4.84809,-6.66594c0.78922,-1.25499 -0.55414,-1.28421 -57.31947,-1.28421l-58.12789,0l0,16.06726m225.60644,8.54843c55.5851,11.60939 77.95324,90.43329 39.06418,137.65556c-41.04563,49.84218 -112.86259,23.02121 -121.48288,-45.36761c-6.89071,-54.66597 35.46709,-102.09555 82.41871,-92.28796m-225.60644,73.49644l0,24.56408l80.32211,0l-0.32624,-12.67781c-0.31545,-4.03351 0.28187,-17.35982 1.09748,-24.49603l0.39581,-3.45749l-81.48915,0l0,16.06726" fill-rule="evenodd"/>
    </g>
   
   </svg>
