
    <svg width="40" height="40" xmlns="http://www.w3.org/2000/svg">

 <g>
  <title>Layer 1</title>
  <path id="svg_1" d="m30.97372,25.105l0,6.848l-20.947,0l0,-6.848l-4.026,0l0,8.861c0,1.111 0.9,2.012 2.016,2.012l24.967,0c1.115,0 2.016,-0.9 2.016,-2.012l0,-8.861l-4.026,0zm-10.842,-0.679l-5.764,-6.965s-0.877,-0.828 0.074,-0.828l3.248,0l0,-1.416l0,-8.723s-0.129,-0.494 0.615,-0.494l4.572,0c0.536,0 0.524,0.416 0.524,0.416l0,10.008l2.998,0c1.154,0 0.285,0.867 0.285,0.867s-4.904,6.51 -5.588,7.193c-0.492,0.495 -0.964,-0.058 -0.964,-0.058z"/>
 </g>
</svg>
    
